<svg xmlns="http://www.w3.org/2000/svg" style="display: none;">

    <symbol id="heart" viewBox="0 0 69 60">
        <path fill="currentColor" fill-rule="evenodd" d="M306.500041,285.928577 C305.883969,285.928577 305.267897,285.69755 304.805843,285.235496 L280.779028,262.055781 C280.470992,261.786249 272,254.046843 272,244.80576 C272,233.523939 278.892307,226.78565 290.405156,226.78565 C297.143445,226.78565 303.458185,232.099272 306.500041,235.102624 C309.541897,232.099272 315.856637,226.78565 322.594926,226.78565 C334.107775,226.78565 341.000082,233.523939 341.000082,244.80576 C341.000082,254.046843 332.52909,261.786249 332.182549,262.13279 L308.19424,285.235496 C307.732185,285.69755 307.116113,285.928577 306.500041,285.928577 Z" transform="translate(-272 -226)"/>
    </symbol>

    <symbol id="close" viewBox="0 0 26 26">
        <polygon fill="currentColor" fill-rule="evenodd" stroke="currentColor" stroke-width="4" points="1293.894 44.212 1286.006 52.1 1293.894 59.988 1291.888 61.994 1284 54.106 1276.112 61.994 1274.106 59.988 1281.994 52.1 1274.106 44.212 1276.112 42.206 1284 50.094 1291.888 42.206" transform="translate(-1271 -39)"/>
    </symbol>

    <symbol id="arrow_left" viewBox="0 0 16 24">
          <path fill="currentColor" fill-rule="evenodd" d="M147.989976,426.081452 L140.285725,433.785702 L147.989976,441.489952 C148.352699,441.852676 148.352699,442.433034 147.989976,442.795757 L145.581491,445.204243 C145.218767,445.566966 144.638409,445.566966 144.275685,445.204243 L133.510048,434.438605 C133.147324,434.075881 133.147324,433.495523 133.510048,433.1328 L144.275685,422.367162 C144.638409,422.004438 145.218767,422.004438 145.581491,422.367162 L147.989976,424.775647 C148.352699,425.13837 148.352699,425.718728 147.989976,426.081452 Z" transform="translate(-133 -422)"/>
    </symbol>

    <symbol id="arrow_right" viewBox="0 0 16 24">
          <path fill="currentColor" fill-rule="evenodd" d="M1306.0614,434.438605 L1295.29577,445.204243 C1294.93304,445.566966 1294.35268,445.566966 1293.98996,445.204243 L1291.58148,442.795757 C1291.21875,442.433034 1291.21875,441.852676 1291.58148,441.489952 L1299.28573,433.785702 L1291.58148,426.081452 C1291.21875,425.718728 1291.21875,425.13837 1291.58148,424.775647 L1293.98996,422.367162 C1294.35268,422.004438 1294.93304,422.004438 1295.29577,422.367162 L1306.0614,433.1328 C1306.42413,433.495523 1306.42413,434.075881 1306.0614,434.438605 Z" transform="translate(-1291 -422)"/>
    </symbol>

    <symbol id="behance" viewBox="0 0 19 12">
      <path fill="currentColor" fill-rule="evenodd" d="M26.2946571,18.3124873 L30.8571625,18.3124873 L30.8571625,19.4196314 L26.2946571,19.4196314 L26.2946571,18.3124873 Z M28.6071598,22.1160632 C27.53573,22.1160632 26.8214434,22.7857069 26.7500148,23.8571367 L30.3928763,23.8571367 C30.2946619,22.7767783 29.7321612,22.1160632 28.6071598,22.1160632 Z M28.7500172,27.3392837 C29.4285894,27.3392837 30.3035904,26.9732119 30.5178764,26.2767825 L32.491093,26.2767825 C31.8839495,28.1428561 30.6250194,29.0178572 28.6785885,29.0178572 C26.1071569,29.0178572 24.5089407,27.2767837 24.5089407,24.7410664 C24.5089407,22.2946349 26.1964427,20.4285612 28.6785885,20.4285612 C31.232163,20.4285612 32.6428789,22.4374922 32.6428789,24.8482093 C32.6428789,24.9910666 32.6339504,25.133924 32.6250218,25.2678527 L26.7500148,25.2678527 C26.7500148,26.5714257 27.4375156,27.3392837 28.7500172,27.3392837 Z M16.8303601,26.8928546 L19.4732204,26.8928546 C20.4821502,26.8928546 21.3035797,26.5357113 21.3035797,25.4017814 C21.3035797,24.2499943 20.6160789,23.7946367 19.5267919,23.7946367 L16.8303601,23.7946367 L16.8303601,26.8928546 Z M16.8303601,22.0982061 L19.3392917,22.0982061 C20.2232213,22.0982061 20.848222,21.714277 20.848222,20.7589187 C20.848222,19.7232032 20.0446496,19.4732029 19.1517914,19.4732029 L16.8303601,19.4732029 L16.8303601,22.0982061 Z M14.3571429,17.5535578 L19.6607206,17.5535578 C21.5892943,17.5535578 23.2589392,18.0982013 23.2589392,20.3392754 C23.2589392,21.4732053 22.7321528,22.205349 21.7232231,22.6874925 C23.1071533,23.0803501 23.7767969,24.1249942 23.7767969,25.5357102 C23.7767969,27.8214272 21.8571518,28.8035712 19.8125065,28.8035712 L14.3571429,28.8035712 L14.3571429,17.5535578 Z" transform="translate(-14 -17)"/>
    </symbol>

    <symbol id="dribbble" viewBox="0 0 15 15">
        <path fill="currentColor" fill-rule="evenodd" d="M25.7857252,28.678571 C25.6964394,28.1607133 25.3571532,26.3749969 24.5357237,24.2321372 C24.5267951,24.2321372 24.5089379,24.2410658 24.5000094,24.2410658 C24.5000094,24.2410658 21.0267909,25.4553529 19.9017896,27.9017844 C19.8482181,27.8571415 19.7678609,27.80357 19.7678609,27.80357 C20.7857192,28.6339281 22.0803636,29.1428573 23.5000082,29.1428573 C24.3125091,29.1428573 25.0803672,28.9732143 25.7857252,28.678571 Z M24.1339375,23.2589217 C23.9910802,22.9285642 23.8303657,22.5982067 23.6607227,22.2678491 C20.6428619,23.1696359 17.7500013,23.0982073 17.6517869,23.0982073 C17.6428583,23.1607073 17.6428583,23.2232074 17.6428583,23.2857075 C17.6428583,24.7857093 18.2142876,26.1607109 19.1428601,27.1964264 C20.7410763,24.3482087 23.9017944,23.3303504 23.9017944,23.3303504 C23.9821516,23.3035646 24.0625088,23.2857075 24.1339375,23.2589217 Z M23.1785792,21.3660623 C22.1607209,19.5624887 21.0803624,18.0982013 21.0000052,17.9910583 C19.3660747,18.7589164 18.1517875,20.2678467 17.7678585,22.0803489 C17.9196444,22.0803489 20.3660759,22.1071346 23.1785792,21.3660623 Z M29.2857294,24.21428 C29.1607292,24.1785657 27.5267987,23.6607079 25.6339393,23.9553511 C26.4017973,26.0714251 26.7142977,27.7946414 26.7767978,28.1428561 C28.0892994,27.2589265 29.0178719,25.8482105 29.2857294,24.21428 Z M22.0982208,17.5982007 C22.0892922,17.5982007 22.0892922,17.5982007 22.0803636,17.6071293 C22.0803636,17.6071293 22.0892922,17.5982007 22.0982208,17.5982007 Z M27.3660842,18.8928451 C26.3392973,17.9821297 24.9821528,17.4285576 23.5000082,17.4285576 C23.0267933,17.4285576 22.5625071,17.4910577 22.116078,17.5982007 C22.2053638,17.7142723 23.312508,19.1696311 24.3125091,21.008919 C26.5178689,20.1874895 27.348227,18.9196308 27.3660842,18.8928451 Z M29.357158,23.2232074 C29.3393008,21.8392772 28.8482288,20.5624899 28.0267993,19.5624887 C28.0089421,19.5803459 27.071441,20.9374904 24.7589382,21.8839201 C24.892867,22.1607061 25.0267957,22.4464208 25.1517959,22.7321354 C25.1964388,22.8303498 25.2321531,22.9374928 25.276796,23.0357072 C27.2946556,22.7767783 29.2857294,23.2142788 29.357158,23.2232074 Z M30.3571592,23.2857075 C30.3571592,27.0714263 27.285727,30.1428585 23.5000082,30.1428585 C19.7142894,30.1428585 16.6428571,27.0714263 16.6428571,23.2857075 C16.6428571,19.4999887 19.7142894,16.4285564 23.5000082,16.4285564 C27.285727,16.4285564 30.3571592,19.4999887 30.3571592,23.2857075 Z" transform="translate(-16 -16)"/>
    </symbol>

    <symbol id="email" viewBox="0 0 15 12">
        <path fill="currentColor" fill-rule="evenodd" d="M30.0000179,20.8002277 L30.0000179,27.446441 C30.0000179,28.183049 29.3973386,28.7857283 28.6607306,28.7857283 L16.3392873,28.7857283 C15.6026793,28.7857283 15,28.183049 15,27.446441 L15,20.8002277 C15.2511164,21.0764558 15.5357149,21.3192016 15.8454251,21.5284652 C17.2349357,22.4743369 18.6411874,23.4202085 20.0055863,24.4163035 C20.7087122,24.9352773 21.5792489,25.5714388 22.4916384,25.5714388 L22.5083795,25.5714388 C23.420769,25.5714388 24.2913057,24.9352773 24.9944316,24.4163035 C26.3588305,23.4285791 27.7650822,22.4743369 29.1629633,21.5284652 C29.464303,21.3192016 29.7489015,21.0764558 30.0000179,20.8002277 Z M30.0000179,18.3392873 C30.0000179,19.2767884 29.3052626,20.1222135 28.5686546,20.6328168 C27.2628494,21.5368358 25.9486738,22.4408547 24.6512392,23.3532442 C24.1071537,23.7299187 23.1863937,24.5000089 22.5083795,24.5000089 L22.4916384,24.5000089 C21.8136242,24.5000089 20.8928642,23.7299187 20.3487787,23.3532442 C19.0513441,22.4408547 17.7371684,21.5368358 16.4397339,20.6328168 C15.8454251,20.2310306 15,19.285159 15,18.5234393 C15,17.7031258 15.4436389,17 16.3392873,17 L28.6607306,17 C29.388968,17 30.0000179,17.6026793 30.0000179,18.3392873 Z" transform="translate(-15 -17)"/>
    </symbol>

    <symbol id="facebook" viewBox="0 0 10 18">
        <path fill="currentColor" fill-rule="evenodd" d="M27.632824,13.691946 L27.632824,16.3437349 L26.0558132,16.3437349 C24.8203206,16.3437349 24.5892936,16.9363695 24.5892936,17.7901652 L24.5892936,19.688605 L27.5323774,19.688605 L27.1406359,22.6618228 L24.5892936,22.6618228 L24.5892936,30.2857158 L21.5156292,30.2857158 L21.5156292,22.6618228 L18.9542422,22.6618228 L18.9542422,19.688605 L21.5156292,19.688605 L21.5156292,17.4988702 C21.5156292,14.9575725 23.0725507,13.5714102 25.3426427,13.5714102 C26.4274654,13.5714102 27.3616183,13.6517674 27.632824,13.691946 Z" transform="translate(-18 -13)"/>
    </symbol>

    <symbol id="instagram" viewBox="0 0 18 18">
      <path fill="currentColor" fill-rule="evenodd" d="M25.4285851,22.8571343 C25.4285851,21.2834718 24.1451014,19.9999881 22.5714388,19.9999881 C20.9977762,19.9999881 19.7142925,21.2834718 19.7142925,22.8571343 C19.7142925,24.4307969 20.9977762,25.7142806 22.5714388,25.7142806 C24.1451014,25.7142806 25.4285851,24.4307969 25.4285851,22.8571343 Z M26.9687655,22.8571343 C26.9687655,25.290173 25.0044774,27.254461 22.5714388,27.254461 C20.1384002,27.254461 18.1741121,25.290173 18.1741121,22.8571343 C18.1741121,20.4240957 20.1384002,18.4598077 22.5714388,18.4598077 C25.0044774,18.4598077 26.9687655,20.4240957 26.9687655,22.8571343 Z M28.174124,18.281236 C28.174124,18.8504331 27.7165342,19.308023 27.1473371,19.308023 C26.57814,19.308023 26.1205502,18.8504331 26.1205502,18.281236 C26.1205502,17.7120389 26.57814,17.2544491 27.1473371,17.2544491 C27.7165342,17.2544491 28.174124,17.7120389 28.174124,18.281236 Z M22.5714388,15.825876 C21.3214373,15.825876 18.6428627,15.7254294 17.5156292,16.1718585 C17.1250037,16.3281087 16.8348248,16.5178411 16.5334852,16.8191807 C16.2321455,17.1205204 16.0424131,17.4106993 15.886163,17.8013247 C15.4397339,18.9285582 15.5401804,21.6071329 15.5401804,22.8571343 C15.5401804,24.1071358 15.4397339,26.7857105 15.886163,27.9129439 C16.0424131,28.3035694 16.2321455,28.5937483 16.5334852,28.895088 C16.8348248,29.1964276 17.1250037,29.38616 17.5156292,29.5424102 C18.6428627,29.9888393 21.3214373,29.8883927 22.5714388,29.8883927 C23.8214403,29.8883927 26.5000149,29.9888393 27.6272484,29.5424102 C28.0178739,29.38616 28.3080528,29.1964276 28.6093924,28.895088 C28.9107321,28.5937483 29.1004644,28.3035694 29.2567146,27.9129439 C29.7031437,26.7857105 29.6026972,24.1071358 29.6026972,22.8571343 C29.6026972,21.6071329 29.7031437,18.9285582 29.2567146,17.8013247 C29.1004644,17.4106993 28.9107321,17.1205204 28.6093924,16.8191807 C28.3080528,16.5178411 28.0178739,16.3281087 27.6272484,16.1718585 C26.5000149,15.7254294 23.8214403,15.825876 22.5714388,15.825876 Z M31.1428776,22.8571343 C31.1428776,24.0401715 31.1540383,25.2120479 31.0870739,26.395085 C31.0201096,27.7678545 30.7076092,28.9843738 29.7031437,29.9888393 C28.6986782,30.9933048 27.4821589,31.3058051 26.1093894,31.3727695 C24.9263523,31.4397339 23.7544759,31.4285731 22.5714388,31.4285731 C21.3884017,31.4285731 20.2165253,31.4397339 19.0334881,31.3727695 C17.6607186,31.3058051 16.4441993,30.9933048 15.4397339,29.9888393 C14.4352684,28.9843738 14.122768,27.7678545 14.0558036,26.395085 C13.9888393,25.2120479 14,24.0401715 14,22.8571343 C14,21.6740972 13.9888393,20.5022208 14.0558036,19.3191837 C14.122768,17.9464142 14.4352684,16.7298949 15.4397339,15.7254294 C16.4441993,14.7209639 17.6607186,14.4084636 19.0334881,14.3414992 C20.2165253,14.2745348 21.3884017,14.2856956 22.5714388,14.2856956 C23.7544759,14.2856956 24.9263523,14.2745348 26.1093894,14.3414992 C27.4821589,14.4084636 28.6986782,14.7209639 29.7031437,15.7254294 C30.7076092,16.7298949 31.0201096,17.9464142 31.0870739,19.3191837 C31.1540383,20.5022208 31.1428776,21.6740972 31.1428776,22.8571343 Z" transform="translate(-14 -14)"/>
    </symbol>

   <symbol id="linkedIn" viewBox="0 0 15 14">
      <path fill="currentColor" fill-rule="evenodd" d="M19.7589323,20.8660617 L19.7589323,29.7142866 L16.8125002,29.7142866 L16.8125002,20.8660617 L19.7589323,20.8660617 Z M19.9464325,18.1339156 C19.9553611,18.9821309 19.3125032,19.6607032 18.2857162,19.6607032 L18.2678591,19.6607032 C17.2767865,19.6607032 16.6428571,18.9821309 16.6428571,18.1339156 C16.6428571,17.2678432 17.3035722,16.6071281 18.3035734,16.6071281 C19.3125032,16.6071281 19.9375039,17.2678432 19.9464325,18.1339156 Z M24.3214377,22.1236987 C24.7090453,21.5177731 25.408273,20.6607043 26.9732266,20.6607043 C28.9107289,20.6607043 30.3571592,21.928563 30.3571592,24.6428519 L30.3571592,29.7142866 L27.4196557,29.7142866 L27.4196557,24.9821381 C27.4196557,23.7946367 26.9910838,22.9821357 25.9285825,22.9821357 C25.1160815,22.9821357 24.6339381,23.5267792 24.4196521,24.0535655 C24.3482235,24.2499943 24.3214377,24.5089232 24.3214377,24.7767807 L24.3214377,29.7142866 L21.3839342,29.7142866 C21.4196486,21.6964199 21.3839342,20.8660617 21.3839342,20.8660617 L24.3214377,20.8660617 L24.3214377,22.1236987 Z" transform="translate(-16 -16)"/>
   </symbol>

    <symbol id="twitter" viewBox="0 0 18 15">
      <path fill="currentColor" fill-rule="evenodd" d="M32.0803787,17.4106993 C31.5893067,18.1249858 30.9754667,18.7611473 30.2723408,19.2745408 C30.2835016,19.430791 30.2835016,19.5870412 30.2835016,19.7432913 C30.2835016,24.508922 26.6562651,30 20.0267929,30 C17.9843797,30 16.0870561,29.4084814 14.491072,28.3816945 C14.7812509,28.4151767 15.0602691,28.4263374 15.3616088,28.4263374 C17.0468786,28.4263374 18.5982198,27.8571403 19.8370605,26.886157 C18.2522372,26.8526748 16.9241106,25.8147272 16.4665208,24.386154 C16.6897353,24.4196362 16.9129499,24.4419577 17.1473252,24.4419577 C17.4709863,24.4419577 17.7946474,24.3973147 18.095987,24.3191897 C16.4441993,23.9843678 15.2053586,22.5334732 15.2053586,20.781239 C15.2053586,20.7700783 15.2053586,20.7477568 15.2053586,20.7365961 C15.6852699,21.0044536 16.2433062,21.1718645 16.8348248,21.1941859 C15.8638415,20.5468637 15.22768,19.4419517 15.22768,18.1919502 C15.22768,17.5223066 15.4062517,16.9084665 15.718752,16.3727516 C17.4933077,18.5602542 20.1607216,19.9888274 23.1517966,20.1450775 C23.095993,19.8772201 23.0625108,19.5982019 23.0625108,19.3191837 C23.0625108,17.3325742 24.6696556,15.7142687 26.6674258,15.7142687 C27.7053735,15.7142687 28.6428746,16.1495371 29.3013575,16.8526629 C30.1160906,16.6964127 30.8973416,16.3950731 31.5893067,15.9821261 C31.3214492,16.8191807 30.7522521,17.5223066 30.0044834,17.9687357 C30.7299307,17.8906106 31.4330565,17.6897175 32.0803787,17.4106993 Z" transform="translate(-14 -15)"/>
    </symbol>
    
</svg>
